<mxfile host="app.diagrams.net" modified="2024-01-08T04:34:25.877Z" agent="Mozilla/5.0 (Windows NT 10.0; Win64; x64) AppleWebKit/537.36 (KHTML, like Gecko) Chrome/120.0.0.0 Safari/537.36" version="22.1.17" etag="5msibxYjFGRsI0coqiMB" type="github">
  <diagram name="페이지-1" id="YSWkeWH5S1ozh7jWKryV">
    <mxGraphModel>
      <root>
        <mxCell id="0" />
        <mxCell id="1" parent="0" />
      </root>
    </mxGraphModel>
  </diagram>
</mxfile>
